<?xml version="1.0" encoding="utf-8"?>
<!-- Generator: Adobe Illustrator 16.0.0, SVG Export Plug-In . SVG Version: 6.00 Build 0)  -->
<!DOCTYPE svg PUBLIC "-//W3C//DTD SVG 1.1//EN" "http://www.w3.org/Graphics/SVG/1.1/DTD/svg11.dtd">
<svg version="1.1" xmlns="http://www.w3.org/2000/svg" xmlns:xlink="http://www.w3.org/1999/xlink" x="0px" y="0px"
	 width="339.555px" height="243.257px" viewBox="0 0 339.555 243.257" enable-background="new 0 0 339.555 243.257"
	 xml:space="preserve">
<g id="Layer_1">
	<rect x="-585.136" y="-151.102" fill="none" width="305.222" height="231.11"/>
	<text transform="matrix(1 0 0 1 -582.5254 -65.1646)"><tspan x="0" y="0" font-family="'HeadlineR-HM'" font-size="100">윾돌이</tspan><tspan x="50" y="120" font-family="'HeadlineR-HM'" font-size="100">랜드</tspan></text>
	<g>
		<path fill="#FFFFFF" stroke="#000000" stroke-miterlimit="10" d="M-496.855,145.954h-88.281l3.475-13.671h88.281L-496.855,145.954
			z M-551.417,185.407h-19.531l5.958-23.437h-17.188l3.476-13.672h36.719L-551.417,185.407z M-502.191,97.029
			c5.664,3.842,7.783,8.563,6.361,14.16c-1.424,5.601-5.895,10.126-13.412,13.573c-7.518,3.453-17.071,5.177-28.659,5.177
			c-11.459,0-20.103-1.724-25.931-5.177c-5.831-3.447-8.031-7.973-6.607-13.573c1.422-5.597,5.974-10.318,13.658-14.16
			c7.681-3.839,17.252-5.763,28.711-5.763C-516.482,91.266-507.856,93.19-502.191,97.029z M-544.413,105.232
			c-3.735,1.63-5.849,3.417-6.346,5.371c-0.464,1.825,0.75,3.582,3.64,5.273c2.89,1.693,6.939,2.538,12.148,2.538
			c5.206,0,9.688-0.845,13.438-2.538c3.751-1.691,5.857-3.448,6.321-5.273c0.463-1.821-0.75-3.579-3.64-5.274
			c-2.891-1.689-6.941-2.537-12.147-2.537C-536.208,102.792-540.679,103.605-544.413,105.232z M-514.112,185.407h-19.531
			l5.958-23.437h-14.844l3.476-13.672h34.375L-514.112,185.407z"/>
		<path fill="#FFFFFF" stroke="#000000" stroke-miterlimit="10" d="M-408.495,166.336l-55.726-0.03l-1.054,5.234l55.444-0.025
			l-1.707,13.892l-68.541-0.194c-2.475,0-4.264-0.778-5.365-2.325c-1.104-1.554-1.329-3.61-0.678-6.172l5.039-19.823l65.894-0.028
			l1.472-4.301l-66.432,0.045l2.939-10.951h75.195L-408.495,166.336z M-392.828,105.526h-56.641l-1.241,4.883h56.641l-3.476,13.671
			h-28.906l-0.596,2.343h34.18l-3.476,13.674h-86.719l3.476-13.674h33.008l0.596-2.343h-19.531c-2.475,0-4.266-0.772-5.368-2.315
			c-1.105-1.545-1.333-3.594-0.685-6.145l6.042-23.768h76.172L-392.828,105.526z"/>
		<path fill="#FFFFFF" stroke="#000000" stroke-miterlimit="10" d="M-323.448,103.432c3.569,8.239,3.866,18.213,0.889,29.925
			c-2.979,11.716-8.355,21.726-16.13,30.026c-7.774,8.305-15.895,12.454-24.357,12.454c-8.465,0-14.441-4.149-17.928-12.454
			c-3.489-8.301-3.743-18.311-0.765-30.026c2.978-11.712,8.312-21.686,16.006-29.925c7.691-8.24,15.771-12.36,24.235-12.36
			C-333.035,91.072-327.017,95.192-323.448,103.432z M-353.844,111.598c-3.051,4.57-5.837,11.822-8.362,21.756
			c-2.526,9.938-3.435,17.221-2.725,21.856c0.707,4.639,2.496,6.954,5.361,6.954c2.994,0,6.023-2.315,9.092-6.954
			c3.064-4.636,5.862-11.919,8.389-21.856c2.525-9.934,3.422-17.186,2.698-21.756c-0.728-4.568-2.587-6.854-5.581-6.854
			C-347.837,104.744-350.796,107.03-353.844,111.598z M-310.01,185.407h-19.531l24.429-96.092h19.531L-310.01,185.407z"/>
		<path fill="#FFFFFF" stroke="#000000" stroke-miterlimit="10" d="M-557.595,268.102h19.531l-5.511,21.68h58.008l-3.476,13.672
			h-69.336c-2.475,0-4.271-0.75-5.387-2.246c-1.116-1.498-1.359-3.484-0.731-5.957L-557.595,268.102z M-496.026,234.118h2.93
			l6.058-23.828h19.531l-16.882,66.406h-19.531l7.349-28.906h-2.93l-7.497,29.492h-19.531l3.326-13.086h-32.031
			c-2.417,0-4.161-0.76-5.235-2.285c-1.074-1.525-1.29-3.547-0.649-6.066l6.168-24.266h17.578l1.142-4.492h-17.578l3.476-13.672
			h37.109l-8.093,31.836h-17.578l-1.341,5.273h20.508l10.229-40.234h19.531L-496.026,234.118z"/>
		<path fill="#FFFFFF" stroke="#000000" stroke-miterlimit="10" d="M-387.771,303.063h-87.695l3.475-13.672h87.695L-387.771,303.063
			z M-374.8,225.915h-57.227l-7.199,28.32H-382l-3.476,13.672h-68.555c-2.475,0-4.271-0.748-5.386-2.246
			c-1.118-1.494-1.361-3.48-0.732-5.957l12.066-47.461h76.758L-374.8,225.915z"/>
	</g>
</g>
<g id="Layer_2">
	<g>
		<path fill="#A5A4A4" stroke="#000000" stroke-miterlimit="10" d="M260.164,35.429c-2.865,0-5.824,2.286-8.872,6.854
			c-3.051,4.571-5.837,11.822-8.362,21.756c-2.526,9.937-3.435,17.221-2.725,21.856c0.707,4.639,2.496,6.955,5.361,6.955
			c2.994,0,6.023-2.316,9.092-6.955c3.064-4.636,5.862-11.919,8.389-21.856c2.525-9.934,3.422-17.185,2.698-21.756
			C265.018,37.715,263.158,35.429,260.164,35.429z"/>
		<path fill="#A5A4A4" stroke="#000000" stroke-miterlimit="10" d="M335.343,7.723C331.554,2.85,325.728,0,319.555,0h-19.531
			c-6.21,0-11.883,2.86-15.591,7.471c-5.99-3.729-13.042-5.714-20.794-5.714c-10.854,0-21.05,3.695-30.43,10.979
			c-0.482-0.857-1.023-1.688-1.637-2.476c-3.789-4.873-9.615-7.723-15.788-7.723h-76.172c-8.765,0-16.445,5.706-19.057,13.981
			c-1.864-1.939-3.996-3.738-6.391-5.362c-9.142-6.194-21.276-9.206-37.099-9.206c-14.533,0-27.201,2.648-37.654,7.873
			c-16.289,8.144-22.096,19.244-24.098,27.121c-0.714,2.807-1.063,5.576-1.059,8.273c-4.937,2.566-8.722,7.15-10.164,12.821
			L0.616,71.712c-1.424,5.601-0.352,11.524,2.901,16.256c-1.426,5.912-0.085,12.158,3.654,16.966
			c2.054,2.642,4.707,4.689,7.689,6.009l-0.056,0.222c-1.521,5.982-0.195,12.332,3.594,17.205c3.789,4.872,9.616,7.724,15.789,7.724
			h9.818l-1.492,5.867c-0.192,0.756-0.339,1.516-0.441,2.279c-0.273,0.717-0.508,1.456-0.701,2.215l-6.168,24.264
			c-1.74,6.844-1.113,13.551,1.743,19.268l-5.122,20.145c-2.12,8.348-0.671,16.455,4.081,22.834
			c4.948,6.637,12.556,10.293,21.422,10.293h69.336c2.566,0,5.035-0.504,7.317-1.403c1.997,0.658,4.104,1.013,6.258,1.013h87.695
			c9.147,0,17.129-6.207,19.383-15.072l3.477-13.672c1.459-5.734,0.3-11.807-3.137-16.594c0.851-1.51,1.515-3.148,1.958-4.891
			l3.476-13.672c1.37-5.393,0.428-11.084-2.547-15.723c4.73-2.604,8.344-7.087,9.745-12.597l3.477-13.671
			c0.364-1.434,0.562-2.889,0.604-4.34c3.274,2.222,7.173,3.457,11.225,3.457h19.531c9.147,0,17.13-6.207,19.384-15.072
			l24.429-96.093C340.459,18.945,339.132,12.596,335.343,7.723z M125.551,57.108h33.008l0.596-2.343h-19.531
			c-2.475,0-4.266-0.772-5.368-2.316c-1.105-1.545-1.333-3.593-0.685-6.144l6.042-23.768h76.172l-3.476,13.673h-56.641l-1.241,4.883
			h56.641l-3.476,13.671h-28.906l-0.596,2.343h34.18l-3.476,13.673h-86.719L125.551,57.108z M119.016,107.401l5.039-19.824
			l65.894-0.028l1.472-4.301l-66.432,0.045l2.939-10.951h75.195l-6.481,24.679l-55.726-0.03l-1.054,5.234l55.444-0.025
			l-1.707,13.893l-68.541-0.195c-2.475,0-4.264-0.778-5.365-2.326C118.59,112.019,118.364,109.962,119.016,107.401z M34.697,41.875
			c1.422-5.597,5.974-10.318,13.658-14.16c7.681-3.839,17.252-5.762,28.711-5.762c11.588,0,20.214,1.923,25.879,5.762
			c5.664,3.842,7.783,8.563,6.361,14.16c-1.424,5.6-5.895,10.126-13.412,13.574c-7.518,3.452-17.071,5.176-28.659,5.176
			c-11.459,0-20.103-1.724-25.931-5.176C35.474,52,33.273,47.475,34.697,41.875z M23.475,62.968h88.281l-3.475,13.671H20
			L23.475,62.968z M62.607,92.656l3.477-13.672h34.375l-9.435,37.109H71.493l5.958-23.438H62.607z M34.188,116.093l5.958-23.438
			H22.959l3.477-13.672h36.719l-9.435,37.109H34.188z M126.664,223.257H57.328c-2.475,0-4.271-0.75-5.387-2.246
			c-1.116-1.498-1.359-3.484-0.731-5.957l6.901-27.148h19.531l-5.511,21.68h58.008L126.664,223.257z M131.317,196.5h-19.531
			l7.349-28.906h-2.93l-7.497,29.492H89.177L92.503,184H60.472c-2.417,0-4.161-0.76-5.235-2.285s-1.289-3.547-0.648-6.066
			l6.168-24.266h17.578l1.143-4.492H61.898l3.475-13.672h37.109l-8.093,31.836H76.812l-1.341,5.273h20.508l10.229-40.234h19.531
			l-6.058,23.828h2.93l6.058-23.828h19.531L131.317,196.5z M227.936,222.867H140.24l3.475-13.672h87.695L227.936,222.867z
			 M240.906,145.718H183.68l-7.199,28.32h57.227l-3.476,13.672h-68.555c-2.475,0-4.271-0.748-5.386-2.246
			c-1.118-1.494-1.361-3.48-0.732-5.957l12.066-47.461h76.758L240.906,145.718z M266.447,94.069
			c-7.774,8.304-15.895,12.454-24.357,12.454c-8.465,0-14.441-4.15-17.928-12.454c-3.489-8.301-3.743-18.311-0.765-30.026
			c2.978-11.712,8.312-21.686,16.006-29.925c7.691-8.24,15.771-12.36,24.235-12.36c8.463,0,14.48,4.12,18.05,12.36
			s3.866,18.213,0.889,29.925C279.599,75.758,274.222,85.768,266.447,94.069z M295.126,116.093h-19.531L300.023,20h19.531
			L295.126,116.093z"/>
		<path fill="#A5A4A4" stroke="#000000" stroke-miterlimit="10" d="M58.017,46.562c2.89,1.693,6.938,2.539,12.147,2.539
			c5.207,0,9.688-0.845,13.438-2.539c3.751-1.691,5.857-3.449,6.321-5.273c0.463-1.822-0.75-3.58-3.64-5.274
			c-2.891-1.69-6.941-2.538-12.147-2.538c-5.209,0-9.68,0.814-13.414,2.441c-3.734,1.63-5.849,3.417-6.346,5.371
			C53.913,43.113,55.127,44.871,58.017,46.562z"/>
	</g>
</g>
</svg>
